<svg xmlns="http://www.w3.org/2000/svg" xmlns:xlink="http://www.w3.org/1999/xlink" version="1.1" x="0px" y="0px" viewBox="0 0 100 125" enable-background="new 0 0 100 100" xml:space="preserve"><path fill="#000000" d="M87.17,45.238l-8.397-3.558c-0.607-2.253-1.473-4.333-2.6-6.327l3.402-8.292  c0.459-1.119,0.201-2.405-0.654-3.26l-2.809-2.809c-0.855-0.855-2.141-1.113-3.26-0.654L64.56,23.74  c-1.993-1.127-4.073-1.993-6.327-2.6l-3.476-8.299C54.291,11.726,53.2,11,51.991,11H48c-1.205,0-2.292,0.72-2.762,1.83l-3.558,8.397  c-2.253,0.607-4.333,1.473-6.327,2.6l-8.292-3.402c-1.119-0.459-2.405-0.201-3.26,0.654l-2.809,2.809  c-0.855,0.855-1.113,2.141-0.654,3.26l3.402,8.292c-1.127,1.993-1.993,4.073-2.6,6.327l-8.299,3.476  C11.726,45.709,11,46.8,11,48.009V52c0,1.205,0.72,2.292,1.83,2.762l8.397,3.558c0.607,2.253,1.473,4.333,2.6,6.327l-3.402,8.292  c-0.459,1.119-0.201,2.405,0.654,3.26l2.809,2.809c0.855,0.855,2.141,1.113,3.26,0.654l8.292-3.402  c1.993,1.127,4.073,1.993,6.327,2.6l3.476,8.299C45.709,88.274,46.8,89,48.009,89H52c1.205,0,2.292-0.72,2.762-1.83l3.558-8.397  c2.253-0.607,4.333-1.473,6.327-2.6l8.292,3.402c1.119,0.459,2.405,0.201,3.26-0.654l2.809-2.809  c0.855-0.855,1.113-2.141,0.654-3.26L76.26,64.56c1.127-1.993,1.993-4.073,2.6-6.327l8.299-3.476C88.274,54.291,89,53.2,89,51.991  V48C89,46.796,88.28,45.708,87.17,45.238z M50,68.135c-10.016,0-18.135-8.119-18.135-18.135S39.984,31.865,50,31.865  S68.135,39.984,68.135,50S60.016,68.135,50,68.135z"/><text x="0" y="115" fill="#000000" font-size="5px" font-weight="bold" font-family="'Helvetica Neue', Helvetica, Arial-Unicode, Arial, Sans-serif">Created by Daouna Jeong</text><text x="0" y="120" fill="#000000" font-size="5px" font-weight="bold" font-family="'Helvetica Neue', Helvetica, Arial-Unicode, Arial, Sans-serif">from the Noun Project</text></svg>