<svg xmlns="http://www.w3.org/2000/svg" xmlns:xlink="http://www.w3.org/1999/xlink" version="1.0" x="0px" y="0px" viewBox="0 0 60.252 75.315" enable-background="new 0 0 60.252 60.252" xml:space="preserve"><path fill="#000000" d="M42.346,7.193c1.266,0.676,2.469,1.453,3.6,2.322c0.377,0.289,0.82,0.43,1.262,0.43  c0.621,0,1.236-0.279,1.645-0.811c0.697-0.908,0.527-2.209-0.379-2.906c-1.311-1.008-2.705-1.908-4.174-2.693  c-1.01-0.539-2.266-0.158-2.805,0.854C40.955,5.396,41.336,6.652,42.346,7.193z M57.744,18.072c-0.539-1.23-1.156-2.418-1.848-3.557  c-0.598-0.986-1.252-1.936-1.955-2.844c-0.703-0.904-2.006-1.068-2.908-0.367c-0.906,0.703-1.07,2.004-0.367,2.908  c0.607,0.783,1.172,1.604,1.688,2.453c0.596,0.982,1.127,2.006,1.592,3.066c1.389,3.182,2.16,6.691,2.16,10.393  c0,7.182-2.904,13.664-7.609,18.371c-4.707,4.705-11.189,7.609-18.369,7.609c-7.182,0-13.664-2.904-18.371-7.609  c-4.705-4.707-7.607-11.189-7.609-18.371c0.002-7.18,2.904-13.662,7.609-18.369c4.707-4.705,11.189-7.609,18.371-7.609  c1.736,0,3.432,0.17,5.07,0.492c1.123,0.223,2.213-0.508,2.436-1.631c0.221-1.123-0.51-2.213-1.633-2.434  C34.1,0.197,32.135,0,30.127,0C13.488,0.002,0.002,13.486,0,30.125C0.002,46.764,13.488,60.25,30.127,60.252  C46.766,60.25,60.25,46.764,60.252,30.125C60.252,25.846,59.357,21.764,57.744,18.072z M31.431,15.092  c-0.735-0.682-1.875-0.682-2.609,0c-0.043,0.043-2.615,2.422-5.233,5.726c-2.587,3.339-5.374,7.46-5.448,11.776  c-0.004,3.807,1.283,7.104,3.467,9.429c2.177,2.33,5.233,3.651,8.521,3.647h0.015c3.279,0,6.33-1.321,8.501-3.647  c2.184-2.325,3.473-5.622,3.469-9.429c-0.074-4.316-2.86-8.438-5.447-11.776C34.046,17.514,31.474,15.135,31.431,15.092z   M30.127,41.827c-4.485-0.058-8.067-3.339-8.146-9.233c-0.072-2.448,2.173-6.374,4.619-9.391c1.205-1.524,2.424-2.859,3.337-3.806  c0.064-0.067,0.127-0.132,0.188-0.194c0.061,0.062,0.123,0.127,0.188,0.194c1.367,1.419,3.427,3.72,5.097,6.206  c1.689,2.471,2.892,5.169,2.857,6.992C38.189,38.488,34.61,41.77,30.127,41.827z"/><text x="0" y="75.25200000000001" fill="#000000" font-size="5px" font-weight="bold" font-family="'Helvetica Neue', Helvetica, Arial-Unicode, Arial, Sans-serif">Created by Andrea Greco</text><text x="0" y="80.25200000000001" fill="#000000" font-size="5px" font-weight="bold" font-family="'Helvetica Neue', Helvetica, Arial-Unicode, Arial, Sans-serif">from the Noun Project</text></svg>